<?xml version="1.0" encoding="UTF-8" standalone="no"?>
<svg
   xmlns:dc="http://purl.org/dc/elements/1.1/"
   xmlns:cc="http://creativecommons.org/ns#"
   xmlns:rdf="http://www.w3.org/1999/02/22-rdf-syntax-ns#"
   xmlns:svg="http://www.w3.org/2000/svg"
   xmlns="http://www.w3.org/2000/svg"
   xmlns:sodipodi="http://sodipodi.sourceforge.net/DTD/sodipodi-0.dtd"
   xmlns:inkscape="http://www.inkscape.org/namespaces/inkscape"
   width="36px"
   height="18px"
   viewBox="0 0 36 18"
   version="1.1"
   id="svg9"
   sodipodi:docname="new-popup.svg"
   inkscape:version="0.92.4 (5da689c313, 2019-01-14)">
  <metadata
     id="metadata15">
    <rdf:RDF>
      <cc:Work
         rdf:about="">
        <dc:format>image/svg+xml</dc:format>
        <dc:type
           rdf:resource="http://purl.org/dc/dcmitype/StillImage" />
      </cc:Work>
    </rdf:RDF>
  </metadata>
  <defs
     id="defs13" />
  <sodipodi:namedview
     pagecolor="#ffffff"
     bordercolor="#666666"
     borderopacity="1"
     objecttolerance="10"
     gridtolerance="10"
     guidetolerance="10"
     inkscape:pageopacity="0"
     inkscape:pageshadow="2"
     inkscape:window-width="1920"
     inkscape:window-height="1017"
     id="namedview11"
     showgrid="false"
     inkscape:zoom="7.8888889"
     inkscape:cx="-6.6549296"
     inkscape:cy="9"
     inkscape:window-x="1912"
     inkscape:window-y="-8"
     inkscape:window-maximized="1"
     inkscape:current-layer="Navbar-Copy" />
  <!-- Generator: Sketch 63.1 (92452) - https://sketch.com -->
  <title
     id="title2">Combined Shape Copy 2</title>
  <desc
     id="desc4">Created with Sketch.</desc>
  <g
     id="Reverso"
     stroke="none"
     stroke-width="1"
     fill="none"
     fill-rule="evenodd">
    <g
       id="Navbar-Copy"
       transform="translate(-2405.000000, -347.000000)"
       fill="#FA6400"
       style="fill:#30465e;fill-opacity:1">
      <path
         d="M2438,347 C2439.65685,347 2441,348.343146 2441,350 L2441,362 C2441,363.656854 2439.65685,365 2438,365 L2408,365 C2406.34315,365 2405,363.656854 2405,362 L2405,350 C2405,348.343146 2406.34315,347 2408,347 L2438,347 Z M2416.50781,351.927734 C2415.97461,351.927734 2415.6582,352.25 2415.6582,352.818359 L2415.6582,357.552734 L2415.61133,357.552734 L2411.95508,352.443359 C2411.68555,352.074219 2411.43945,351.927734 2411.07617,351.927734 C2410.51367,351.927734 2410.18555,352.25 2410.18555,352.8125 L2410.18555,359.726562 C2410.18555,360.289062 2410.50195,360.611328 2411.03516,360.611328 C2411.5625,360.611328 2411.87891,360.289062 2411.87891,359.726562 L2411.87891,354.962891 L2411.93164,354.962891 L2415.59961,360.101562 C2415.86914,360.476562 2416.10352,360.611328 2416.48438,360.611328 C2417.04102,360.611328 2417.35156,360.300781 2417.35156,359.75 L2417.35156,352.818359 C2417.35156,352.25 2417.04102,351.927734 2416.50781,351.927734 Z M2435.22266,351.927734 C2434.75977,351.927734 2434.47852,352.179688 2434.36719,352.689453 L2433.10156,358.167969 L2433.05469,358.167969 L2431.63086,352.707031 C2431.50195,352.185547 2431.20898,351.927734 2430.72852,351.927734 C2430.23633,351.927734 2429.95508,352.167969 2429.82031,352.71875 L2428.39648,358.167969 L2428.34961,358.167969 L2427.08398,352.689453 C2426.97852,352.185547 2426.69727,351.927734 2426.23438,351.927734 C2425.69531,351.927734 2425.36133,352.232422 2425.36133,352.724609 C2425.36133,352.882812 2425.39648,353.09375 2425.45508,353.310547 L2427.21875,359.708984 C2427.39453,360.341797 2427.69922,360.611328 2428.25586,360.611328 C2428.8125,360.611328 2429.12891,360.335938 2429.29883,359.714844 L2430.69922,354.722656 L2430.75195,354.722656 L2432.1582,359.714844 C2432.32812,360.347656 2432.63867,360.611328 2433.20703,360.611328 C2433.75195,360.611328 2434.05664,360.341797 2434.23242,359.720703 L2436.00195,353.310547 C2436.06055,353.087891 2436.0957,352.876953 2436.0957,352.724609 C2436.0957,352.232422 2435.76172,351.927734 2435.22266,351.927734 Z M2423.66211,352.044922 L2419.64258,352.044922 C2419.08594,352.044922 2418.75781,352.384766 2418.75781,352.964844 L2418.75781,359.574219 C2418.75781,360.160156 2419.08594,360.5 2419.64258,360.5 L2423.66211,360.5 C2424.14844,360.5 2424.46484,360.224609 2424.46484,359.767578 C2424.46484,359.310547 2424.14258,359.035156 2423.66211,359.035156 L2420.52734,359.035156 L2420.52734,356.902344 L2423.50977,356.902344 C2423.95508,356.902344 2424.24805,356.644531 2424.24805,356.222656 C2424.24805,355.800781 2423.94922,355.542969 2423.50977,355.542969 L2420.52734,355.542969 L2420.52734,353.509766 L2423.66211,353.509766 C2424.14258,353.509766 2424.46484,353.234375 2424.46484,352.777344 C2424.46484,352.320312 2424.14844,352.044922 2423.66211,352.044922 Z"
         id="Combined-Shape-Copy-2"
         style="fill:#0b8dd9;fill-opacity:1" />
    </g>
  </g>
</svg>
