<svg width="36" height="18" viewBox="0 0 36 18" fill="none" xmlns="http://www.w3.org/2000/svg">
<rect width="36" height="18" rx="3" fill="#FF9F1A"/>
<path fill-rule="evenodd" clip-rule="evenodd" d="M11.4824 13.6094C12.0391 13.6094 12.3496 13.2988 12.3496 12.748V5.81641C12.3496 5.24805 12.0391 4.92578 11.5059 4.92578C10.9727 4.92578 10.6562 5.24805 10.6562 5.81641V10.5508H10.6094L6.95312 5.44141C6.68359 5.07227 6.4375 4.92578 6.07422 4.92578C5.51172 4.92578 5.18359 5.24805 5.18359 5.81055V12.7246C5.18359 13.2871 5.5 13.6094 6.0332 13.6094C6.56055 13.6094 6.87695 13.2871 6.87695 12.7246V7.96094H6.92969L10.5977 13.0996C10.8672 13.4746 11.1016 13.6094 11.4824 13.6094ZM18.6628 13.499C19.1491 13.499 19.4655 13.2236 19.4655 12.7665C19.4655 12.3095 19.1433 12.0341 18.6628 12.0341H15.528V9.90131H18.5105C18.9558 9.90131 19.2487 9.6435 19.2487 9.22162C19.2487 8.79975 18.9499 8.54193 18.5105 8.54193H15.528V6.50873H18.6628C19.1433 6.50873 19.4655 6.23334 19.4655 5.77631C19.4655 5.31928 19.1491 5.04389 18.6628 5.04389H14.6433C14.0866 5.04389 13.7585 5.38373 13.7585 5.96381V12.5732C13.7585 13.1591 14.0866 13.499 14.6433 13.499H18.6628ZM29.2307 12.719C29.0549 13.3401 28.7502 13.6096 28.2053 13.6096C27.6369 13.6096 27.3264 13.3459 27.1565 12.7131L25.7502 7.72093H25.6975L24.2971 12.7131C24.1272 13.3342 23.8108 13.6096 23.2541 13.6096C22.6975 13.6096 22.3928 13.3401 22.217 12.7073L20.4534 6.30882C20.3948 6.09203 20.3596 5.88109 20.3596 5.72289C20.3596 5.2307 20.6936 4.92601 21.2327 4.92601C21.6955 4.92601 21.9768 5.18382 22.0823 5.68773L23.3479 11.1662H23.3948L24.8186 5.71703C24.9534 5.16625 25.2346 4.92601 25.7268 4.92601C26.2073 4.92601 26.5002 5.18382 26.6291 5.70531L28.053 11.1662H28.0998L29.3655 5.68773C29.4768 5.17796 29.758 4.92601 30.2209 4.92601C30.76 4.92601 31.094 5.2307 31.094 5.72289C31.094 5.87523 31.0588 6.08617 31.0002 6.30882L29.2307 12.719Z" fill="white"/>
</svg>
